<?xml version="1.0" encoding="UTF-8" standalone="no"?>
<!DOCTYPE svg PUBLIC "-//W3C//DTD SVG 1.1//EN" "http://www.w3.org/Graphics/SVG/1.1/DTD/svg11.dtd">
<svg xmlns="http://www.w3.org/2000/svg" version="1.1" viewBox="0.00 0.00 256.00 256.00">
<g stroke-width="2.00" fill="none" stroke-linecap="butt">
<path stroke="#337ab7" vector-effect="non-scaling-stroke" d="
  M 239.10 64.17
  L 193.89 89.95"
/>
<path stroke="#b2cde9" vector-effect="non-scaling-stroke" d="
  M 193.89 89.95
  Q 181.09 68.93 160.10 59.27
  C 121.90 41.69 76.78 57.98 59.16 95.90
  Q 47.58 120.82 54.54 147.98
  Q 56.76 156.66 62.09 166.26"
/>
<path stroke="#336faa" vector-effect="non-scaling-stroke" d="
  M 62.09 166.26
  L 17.01 192.26"
/>
<path stroke="#80acce" vector-effect="non-scaling-stroke" d="
  M 193.89 89.95
  L 161.29 109.15
  A 0.39 0.30 -52.0 0 1 161.13 109.19
  Q 160.86 109.19 160.65 109.11"
/>
<path stroke="#b2cde9" vector-effect="non-scaling-stroke" d="
  M 160.65 109.11
  Q 160.46 108.43 159.99 107.74
  Q 152.48 96.65 140.61 92.44
  C 107.56 80.74 77.62 116.74 95.19 147.08"
/>
<path stroke="#80a2c1" vector-effect="non-scaling-stroke" d="
  M 95.19 147.08
  Q 103.65 161.36 120.54 165.05
  Q 130.44 167.21 139.98 163.95
  Q 153.44 159.36 160.76 147.19"
/>
<path stroke="#80acce" vector-effect="non-scaling-stroke" d="
  M 160.76 147.19
  L 193.85 166.36"
/>
<path stroke="#80a2c1" vector-effect="non-scaling-stroke" d="
  M 193.85 166.36
  C 181.97 186.11 163.00 199.30 140.42 203.15
  Q 128.81 205.13 117.76 203.52
  Q 81.75 198.28 62.09 166.26"
/>
<path stroke="#004f8f" vector-effect="non-scaling-stroke" d="
  M 239.08 192.15
  L 193.85 166.36"
/>
<path stroke="#004f8f" vector-effect="non-scaling-stroke" d="
  M 160.76 147.19
  Q 160.42 146.75 160.03 146.53
  Q 144.85 137.82 129.69 129.09
  Q 128.96 128.67 128.70 128.04"
/>
<path stroke="#337ab7" vector-effect="non-scaling-stroke" d="
  M 128.70 128.04
  L 160.65 109.11"
/>
<path stroke="#80acce" vector-effect="non-scaling-stroke" d="
  M 186.92 132.62
  Q 187.03 132.73 187.02 132.93
  Q 186.86 136.96 186.95 140.21
  A 0.68 0.68 0.0 0 0 187.57 140.86
  Q 188.20 140.92 191.32 140.92
  Q 194.43 140.92 195.06 140.86
  A 0.68 0.68 0.0 0 0 195.69 140.21
  Q 195.78 136.97 195.62 132.93
  Q 195.61 132.74 195.73 132.63
  Q 195.92 132.43 196.11 132.44
  Q 200.15 132.60 203.39 132.52
  A 0.68 0.68 0.0 0 0 204.05 131.90
  Q 204.10 131.26 204.11 128.15
  Q 204.11 125.04 204.05 124.40
  A 0.68 0.68 0.0 0 0 203.40 123.78
  Q 200.15 123.69 196.12 123.84
  Q 195.93 123.85 195.82 123.74
  Q 195.62 123.54 195.63 123.35
  Q 195.79 119.32 195.70 116.07
  A 0.68 0.68 0.0 0 0 195.08 115.42
  Q 194.45 115.36 191.34 115.36
  Q 188.22 115.36 187.59 115.41
  A 0.68 0.68 0.0 0 0 186.97 116.06
  Q 186.87 119.31 187.03 123.34
  Q 187.04 123.54 186.93 123.65
  Q 186.73 123.84 186.54 123.84
  Q 182.50 123.67 179.26 123.76
  A 0.68 0.68 0.0 0 0 178.61 124.38
  Q 178.55 125.02 178.55 128.13
  Q 178.54 131.24 178.60 131.88
  A 0.68 0.68 0.0 0 0 179.25 132.50
  Q 182.50 132.59 186.53 132.43
  Q 186.72 132.43 186.92 132.62"
/>
<path stroke="#80acce" vector-effect="non-scaling-stroke" d="
  M 218.50 123.73
  Q 218.39 123.84 218.20 123.83
  Q 214.16 123.67 210.91 123.76
  A 0.68 0.68 0.0 0 0 210.26 124.38
  Q 210.20 125.02 210.20 128.14
  Q 210.20 131.25 210.26 131.89
  A 0.68 0.68 0.0 0 0 210.91 132.51
  Q 214.16 132.60 218.20 132.44
  Q 218.39 132.43 218.50 132.55
  Q 218.70 132.74 218.69 132.93
  Q 218.53 136.97 218.62 140.22
  A 0.68 0.68 0.0 0 0 219.24 140.88
  Q 219.88 140.93 223.00 140.93
  Q 226.11 140.93 226.75 140.88
  A 0.68 0.68 0.0 0 0 227.37 140.22
  Q 227.46 136.97 227.30 132.93
  Q 227.29 132.74 227.41 132.63
  Q 227.60 132.43 227.79 132.44
  Q 231.83 132.60 235.08 132.51
  A 0.68 0.68 0.0 0 0 235.74 131.89
  Q 235.79 131.25 235.79 128.14
  Q 235.79 125.02 235.74 124.38
  A 0.68 0.68 0.0 0 0 235.08 123.76
  Q 231.83 123.67 227.80 123.83
  Q 227.60 123.84 227.49 123.73
  Q 227.30 123.53 227.30 123.34
  Q 227.46 119.30 227.37 116.05
  A 0.68 0.68 0.0 0 0 226.75 115.40
  Q 226.11 115.34 223.00 115.34
  Q 219.88 115.34 219.24 115.39
  A 0.68 0.68 0.0 0 0 218.62 116.05
  Q 218.53 119.30 218.69 123.34
  Q 218.70 123.53 218.50 123.73"
/>
<path stroke="#336faa" vector-effect="non-scaling-stroke" d="
  M 128.70 128.04
  L 95.19 147.08"
/>
</g>
<path fill="#659ad2" d="
  M 130.23 0.00
  Q 134.97 0.68 136.92 1.80
  Q 184.90 29.46 232.86 57.13
  Q 236.51 59.23 239.10 64.17
  L 193.89 89.95
  Q 181.09 68.93 160.10 59.27
  C 121.90 41.69 76.78 57.98 59.16 95.90
  Q 47.58 120.82 54.54 147.98
  Q 56.76 156.66 62.09 166.26
  L 17.01 192.26
  Q 14.00 187.46 14.00 182.50
  Q 14.02 82.95 13.95 80.18
  Q 13.72 70.62 15.40 67.03
  C 18.38 60.64 21.10 58.22 27.63 54.51
  Q 31.59 52.27 119.25 1.71
  Q 120.87 0.77 125.65 0.00
  L 130.23 0.00
  Z"
/>
<path fill="#ffffff" d="
  M 193.89 89.95
  L 161.29 109.15
  A 0.39 0.30 -52.0 0 1 161.13 109.19
  Q 160.86 109.19 160.65 109.11
  Q 160.46 108.43 159.99 107.74
  Q 152.48 96.65 140.61 92.44
  C 107.56 80.74 77.62 116.74 95.19 147.08
  Q 103.65 161.36 120.54 165.05
  Q 130.44 167.21 139.98 163.95
  Q 153.44 159.36 160.76 147.19
  L 193.85 166.36
  C 181.97 186.11 163.00 199.30 140.42 203.15
  Q 128.81 205.13 117.76 203.52
  Q 81.75 198.28 62.09 166.26
  Q 56.76 156.66 54.54 147.98
  Q 47.58 120.82 59.16 95.90
  C 76.78 57.98 121.90 41.69 160.10 59.27
  Q 181.09 68.93 193.89 89.95
  Z"
/>
<path fill="#00599c" d="
  M 239.10 64.17
  Q 241.99 69.07 241.99 72.75
  Q 242.01 128.00 241.99 183.25
  Q 241.99 187.36 239.08 192.15
  L 193.85 166.36
  L 160.76 147.19
  Q 160.42 146.75 160.03 146.53
  Q 144.85 137.82 129.69 129.09
  Q 128.96 128.67 128.70 128.04
  L 160.65 109.11
  Q 160.86 109.19 161.13 109.19
  A 0.39 0.30 -52.0 0 0 161.29 109.15
  L 193.89 89.95
  L 239.10 64.17
  Z
  M 186.92 132.62
  Q 187.03 132.73 187.02 132.93
  Q 186.86 136.96 186.95 140.21
  A 0.68 0.68 0.0 0 0 187.57 140.86
  Q 188.20 140.92 191.32 140.92
  Q 194.43 140.92 195.06 140.86
  A 0.68 0.68 0.0 0 0 195.69 140.21
  Q 195.78 136.97 195.62 132.93
  Q 195.61 132.74 195.73 132.63
  Q 195.92 132.43 196.11 132.44
  Q 200.15 132.60 203.39 132.52
  A 0.68 0.68 0.0 0 0 204.05 131.90
  Q 204.10 131.26 204.11 128.15
  Q 204.11 125.04 204.05 124.40
  A 0.68 0.68 0.0 0 0 203.40 123.78
  Q 200.15 123.69 196.12 123.84
  Q 195.93 123.85 195.82 123.74
  Q 195.62 123.54 195.63 123.35
  Q 195.79 119.32 195.70 116.07
  A 0.68 0.68 0.0 0 0 195.08 115.42
  Q 194.45 115.36 191.34 115.36
  Q 188.22 115.36 187.59 115.41
  A 0.68 0.68 0.0 0 0 186.97 116.06
  Q 186.87 119.31 187.03 123.34
  Q 187.04 123.54 186.93 123.65
  Q 186.73 123.84 186.54 123.84
  Q 182.50 123.67 179.26 123.76
  A 0.68 0.68 0.0 0 0 178.61 124.38
  Q 178.55 125.02 178.55 128.13
  Q 178.54 131.24 178.60 131.88
  A 0.68 0.68 0.0 0 0 179.25 132.50
  Q 182.50 132.59 186.53 132.43
  Q 186.72 132.43 186.92 132.62
  Z
  M 218.50 123.73
  Q 218.39 123.84 218.20 123.83
  Q 214.16 123.67 210.91 123.76
  A 0.68 0.68 0.0 0 0 210.26 124.38
  Q 210.20 125.02 210.20 128.14
  Q 210.20 131.25 210.26 131.89
  A 0.68 0.68 0.0 0 0 210.91 132.51
  Q 214.16 132.60 218.20 132.44
  Q 218.39 132.43 218.50 132.55
  Q 218.70 132.74 218.69 132.93
  Q 218.53 136.97 218.62 140.22
  A 0.68 0.68 0.0 0 0 219.24 140.88
  Q 219.88 140.93 223.00 140.93
  Q 226.11 140.93 226.75 140.88
  A 0.68 0.68 0.0 0 0 227.37 140.22
  Q 227.46 136.97 227.30 132.93
  Q 227.29 132.74 227.41 132.63
  Q 227.60 132.43 227.79 132.44
  Q 231.83 132.60 235.08 132.51
  A 0.68 0.68 0.0 0 0 235.74 131.89
  Q 235.79 131.25 235.79 128.14
  Q 235.79 125.02 235.74 124.38
  A 0.68 0.68 0.0 0 0 235.08 123.76
  Q 231.83 123.67 227.80 123.83
  Q 227.60 123.84 227.49 123.73
  Q 227.30 123.53 227.30 123.34
  Q 227.46 119.30 227.37 116.05
  A 0.68 0.68 0.0 0 0 226.75 115.40
  Q 226.11 115.34 223.00 115.34
  Q 219.88 115.34 219.24 115.39
  A 0.68 0.68 0.0 0 0 218.62 116.05
  Q 218.53 119.30 218.69 123.34
  Q 218.70 123.53 218.50 123.73
  Z"
/>
<path fill="#659ad2" d="
  M 160.65 109.11
  L 128.70 128.04
  L 95.19 147.08
  C 77.62 116.74 107.56 80.74 140.61 92.44
  Q 152.48 96.65 159.99 107.74
  Q 160.46 108.43 160.65 109.11
  Z"
/>
<path fill="#ffffff" d="
  M 186.92 132.62
  Q 186.72 132.43 186.53 132.43
  Q 182.50 132.59 179.25 132.50
  A 0.68 0.68 0.0 0 1 178.60 131.88
  Q 178.54 131.24 178.55 128.13
  Q 178.55 125.02 178.61 124.38
  A 0.68 0.68 0.0 0 1 179.26 123.76
  Q 182.50 123.67 186.54 123.84
  Q 186.73 123.84 186.93 123.65
  Q 187.04 123.54 187.03 123.34
  Q 186.87 119.31 186.97 116.06
  A 0.68 0.68 0.0 0 1 187.59 115.41
  Q 188.22 115.36 191.34 115.36
  Q 194.45 115.36 195.08 115.42
  A 0.68 0.68 0.0 0 1 195.70 116.07
  Q 195.79 119.32 195.63 123.35
  Q 195.62 123.54 195.82 123.74
  Q 195.93 123.85 196.12 123.84
  Q 200.15 123.69 203.40 123.78
  A 0.68 0.68 0.0 0 1 204.05 124.40
  Q 204.11 125.04 204.11 128.15
  Q 204.10 131.26 204.05 131.90
  A 0.68 0.68 0.0 0 1 203.39 132.52
  Q 200.15 132.60 196.11 132.44
  Q 195.92 132.43 195.73 132.63
  Q 195.61 132.74 195.62 132.93
  Q 195.78 136.97 195.69 140.21
  A 0.68 0.68 0.0 0 1 195.06 140.86
  Q 194.43 140.92 191.32 140.92
  Q 188.20 140.92 187.57 140.86
  A 0.68 0.68 0.0 0 1 186.95 140.21
  Q 186.86 136.96 187.02 132.93
  Q 187.03 132.73 186.92 132.62
  Z"
/>
<path fill="#ffffff" d="
  M 223.00 115.34
  Q 226.11 115.34 226.75 115.40
  A 0.68 0.68 0.0 0 1 227.37 116.05
  Q 227.46 119.30 227.30 123.34
  Q 227.30 123.53 227.49 123.73
  Q 227.60 123.84 227.80 123.83
  Q 231.83 123.67 235.08 123.76
  A 0.68 0.68 0.0 0 1 235.74 124.38
  Q 235.79 125.02 235.79 128.14
  Q 235.79 131.25 235.74 131.89
  A 0.68 0.68 0.0 0 1 235.08 132.51
  Q 231.83 132.60 227.79 132.44
  Q 227.60 132.43 227.41 132.63
  Q 227.29 132.74 227.30 132.93
  Q 227.46 136.97 227.37 140.22
  A 0.68 0.68 0.0 0 1 226.75 140.88
  Q 226.11 140.93 223.00 140.93
  Q 219.88 140.93 219.24 140.88
  A 0.68 0.68 0.0 0 1 218.62 140.22
  Q 218.53 136.97 218.69 132.93
  Q 218.70 132.74 218.50 132.55
  Q 218.39 132.43 218.20 132.44
  Q 214.16 132.60 210.91 132.51
  A 0.68 0.68 0.0 0 1 210.26 131.89
  Q 210.20 131.25 210.20 128.14
  Q 210.20 125.02 210.26 124.38
  A 0.68 0.68 0.0 0 1 210.91 123.76
  Q 214.16 123.67 218.20 123.83
  Q 218.39 123.84 218.50 123.73
  Q 218.70 123.53 218.69 123.34
  Q 218.53 119.30 218.62 116.05
  A 0.68 0.68 0.0 0 1 219.24 115.39
  Q 219.88 115.34 223.00 115.34
  Z"
/>
<path fill="#004482" d="
  M 128.70 128.04
  Q 128.96 128.67 129.69 129.09
  Q 144.85 137.82 160.03 146.53
  Q 160.42 146.75 160.76 147.19
  Q 153.44 159.36 139.98 163.95
  Q 130.44 167.21 120.54 165.05
  Q 103.65 161.36 95.19 147.08
  L 128.70 128.04
  Z"
/>
<path fill="#004482" d="
  M 239.08 192.15
  Q 236.47 197.03 232.72 199.19
  Q 185.43 226.50 138.13 253.79
  C 136.26 254.86 134.35 255.40 132.33 256.00
  L 123.80 256.00
  L 119.98 254.81
  A 5.21 5.04 67.7 0 1 119.02 254.39
  Q 71.23 226.87 23.45 199.33
  Q 19.63 197.13 17.01 192.26
  L 62.09 166.26
  Q 81.75 198.28 117.76 203.52
  Q 128.81 205.13 140.42 203.15
  C 163.00 199.30 181.97 186.11 193.85 166.36
  L 239.08 192.15
  Z"
/>
</svg>
