<?xml version="1.0" encoding="UTF-8" standalone="no"?>
<!DOCTYPE svg PUBLIC "-//W3C//DTD SVG 1.1//EN" "http://www.w3.org/Graphics/SVG/1.1/DTD/svg11.dtd">
<svg xmlns="http://www.w3.org/2000/svg" version="1.1" viewBox="0.00 0.00 240.00 182.00">
<g stroke-width="2.00" fill="none" stroke-linecap="butt">
<path stroke="#4478d2" vector-effect="non-scaling-stroke" d="
  M 128.30 1.03
  L 123.20 2.89"
/>
<path stroke="#477dda" vector-effect="non-scaling-stroke" d="
  M 123.20 2.89
  L 50.14 2.98
  A 4.40 4.25 -50.8 0 0 49.13 3.10
  Q 44.39 4.20 41.26 7.79
  Q 39.56 9.75 37.93 16.84
  Q 24.87 73.63 11.88 130.48"
/>
<path stroke="#4478d2" vector-effect="non-scaling-stroke" d="
  M 11.88 130.48
  L 4.23 164.38
  A 1.20 1.17 80.9 0 1 3.70 165.13
  L 1.65 166.39"
/>
<path stroke="#4d86eb" vector-effect="non-scaling-stroke" d="
  M 235.53 2.98
  L 236.33 6.80"
/>
<path stroke="#477cda" vector-effect="non-scaling-stroke" d="
  M 236.33 6.80
  Q 232.67 3.34 227.83 3.19
  Q 217.44 2.89 199.75 3.13
  A 1.52 1.51 -65.2 0 0 198.81 3.48
  C 181.49 17.90 169.49 32.86 152.75 51.53
  Q 144.16 61.10 132.67 66.90"
/>
<path stroke="#3f71c5" vector-effect="non-scaling-stroke" d="
  M 132.67 66.90
  L 110.45 43.07"
/>
<path stroke="#4d86eb" vector-effect="non-scaling-stroke" d="
  M 110.45 43.07
  C 120.98 31.26 129.36 19.91 129.92 3.58
  A 0.50 0.50 0.0 0 0 129.43 3.07
  L 123.20 2.89"
/>
<path stroke="#4276cd" vector-effect="non-scaling-stroke" d="
  M 110.45 43.07
  Q 106.01 38.30 101.42 33.62
  Q 101.35 33.56 97.14 28.80
  Q 94.49 25.82 91.25 23.75"
/>
<path stroke="#a7c5f9" vector-effect="non-scaling-stroke" d="
  M 91.25 23.75
  C 85.42 18.60 77.74 20.15 74.18 26.76
  Q 71.37 31.97 75.40 37.93"
/>
<path stroke="#4276cd" vector-effect="non-scaling-stroke" d="
  M 75.40 37.93
  Q 74.74 37.74 75.17 38.77
  A 2.17 1.95 15.3 0 0 75.57 39.39
  L 83.46 47.95"
/>
<path stroke="#4d86eb" vector-effect="non-scaling-stroke" d="
  M 83.46 47.95
  Q 76.13 59.92 66.90 70.52
  Q 46.27 94.20 25.16 117.43
  Q 21.57 121.39 11.88 130.48"
/>
<path stroke="#4d86eb" vector-effect="non-scaling-stroke" d="
  M 90.03 180.96
  Q 93.76 180.64 96.95 179.13"
/>
<path stroke="#477dda" vector-effect="non-scaling-stroke" d="
  M 108.93 179.06
  Q 145.21 179.08 181.43 179.04
  C 189.81 179.03 193.71 179.62 198.48 174.46
  Q 200.41 172.38 202.42 163.59
  Q 216.87 100.43 231.39 37.28"
/>
<path stroke="#3f71c5" vector-effect="non-scaling-stroke" d="
  M 57.50 161.30
  Q 49.60 161.03 46.99 154.61"
/>
<path stroke="#4a81e2" vector-effect="non-scaling-stroke" d="
  M 236.33 6.80
  Q 237.57 9.62 237.06 12.24
  Q 235.50 20.31 231.39 37.28"
/>
<path stroke="#4173c8" vector-effect="non-scaling-stroke" d="
  M 231.39 37.28
  Q 220.95 47.47 212.68 56.73
  Q 192.26 79.59 157.34 119.21
  Q 152.77 124.39 143.77 135.99"
/>
<path stroke="#a2bbe8" vector-effect="non-scaling-stroke" d="
  M 143.77 135.99
  L 116.88 135.99
  A 3.47 3.07 -48.6 0 0 116.08 136.09
  Q 110.81 137.49 109.40 142.14
  Q 106.81 150.71 115.32 154.95"
/>
<path stroke="#3c6cbb" vector-effect="non-scaling-stroke" d="
  M 115.32 154.95
  Q 114.73 154.63 115.69 155.56"
/>
<path stroke="#4173c8" vector-effect="non-scaling-stroke" d="
  M 115.69 155.56
  C 116.10 164.17 112.31 171.40 108.93 179.06"
/>
<path stroke="#4a81e2" vector-effect="non-scaling-stroke" d="
  M 108.93 179.06
  L 96.95 179.13"
/>
<path stroke="#477cda" vector-effect="non-scaling-stroke" d="
  M 96.95 179.13
  L 45.26 178.90
  A 0.27 0.27 0.0 0 1 45.04 178.48
  L 57.50 161.30"
/>
<path stroke="#3c6cbb" vector-effect="non-scaling-stroke" d="
  M 57.50 161.30
  Q 60.86 161.00 62.68 159.69
  Q 135.04 107.72 143.50 101.77
  C 148.76 98.07 152.01 92.83 150.02 86.17
  A 3.59 3.37 22.1 0 0 149.61 85.28
  Q 147.59 82.08 145.13 79.63
  Q 138.83 73.34 132.67 66.90"
/>
<path stroke="#3f71c5" vector-effect="non-scaling-stroke" d="
  M 120.69 87.56
  L 83.46 47.95"
/>
<path stroke="#9ab0d3" vector-effect="non-scaling-stroke" d="
  M 91.25 23.75
  Q 116.54 50.82 141.90 77.61
  C 143.33 79.11 147.02 82.65 147.74 85.48
  C 149.20 91.25 146.22 95.77 141.43 99.18
  Q 124.27 111.36 63.38 155.21
  Q 59.18 158.23 56.38 158.47
  Q 51.46 158.89 46.99 154.61"
/>
<path stroke="#a5c0f1" vector-effect="non-scaling-stroke" d="
  M 46.99 154.61
  Q 46.54 153.47 45.91 152.13
  C 43.83 147.70 44.84 142.47 48.69 139.69
  Q 83.94 114.21 120.69 87.56"
/>
<path stroke="#9ab0d3" vector-effect="non-scaling-stroke" d="
  M 120.69 87.56
  Q 121.59 87.19 120.74 86.26
  Q 108.34 72.58 75.40 37.93"
/>
<path stroke="#3967b3" vector-effect="non-scaling-stroke" d="
  M 115.69 155.56
  Q 117.78 156.37 118.38 156.37
  Q 141.05 156.42 163.76 156.38
  A 6.23 6.17 -57.8 0 0 166.48 155.75
  Q 174.58 151.82 171.14 143.12"
/>
<path stroke="#9fb7e0" vector-effect="non-scaling-stroke" d="
  M 171.14 143.12
  Q 169.69 139.12 166.73 137.31
  Q 164.62 136.02 159.53 136.00
  Q 151.67 135.96 143.77 135.99"
/>
<path stroke="#9ab0d3" vector-effect="non-scaling-stroke" d="
  M 171.14 143.12
  Q 171.87 152.01 164.83 154.72
  A 4.77 4.61 -54.4 0 1 163.08 155.04
  L 115.32 154.95"
/>
</g>
<path fill="#3e6ec0" d="
  M 128.30 1.03
  L 123.20 2.89
  L 50.14 2.98
  A 4.40 4.25 -50.8 0 0 49.13 3.10
  Q 44.39 4.20 41.26 7.79
  Q 39.56 9.75 37.93 16.84
  Q 24.87 73.63 11.88 130.48
  L 4.23 164.38
  A 1.20 1.17 80.9 0 1 3.70 165.13
  L 1.65 166.39
  Q 18.70 91.74 35.83 17.12
  Q 37.73 8.86 39.57 6.68
  Q 43.15 2.45 48.68 1.13
  A 3.96 3.80 36.7 0 1 49.64 1.01
  L 128.30 1.03
  Z"
/>
<path fill="#4a81e3" d="
  M 235.53 2.98
  L 236.33 6.80
  Q 232.67 3.34 227.83 3.19
  Q 217.44 2.89 199.75 3.13
  A 1.52 1.51 -65.2 0 0 198.81 3.48
  C 181.49 17.90 169.49 32.86 152.75 51.53
  Q 144.16 61.10 132.67 66.90
  L 110.45 43.07
  C 120.98 31.26 129.36 19.91 129.92 3.58
  A 0.50 0.50 0.0 0 0 129.43 3.07
  L 123.20 2.89
  L 128.30 1.03
  Q 208.31 0.86 231.21 1.08
  Q 233.15 1.10 235.53 2.98
  Z"
/>
<path fill="#4f8bf3" d="
  M 123.20 2.89
  L 129.43 3.07
  A 0.50 0.50 0.0 0 1 129.92 3.58
  C 129.36 19.91 120.98 31.26 110.45 43.07
  Q 106.01 38.30 101.42 33.62
  Q 101.35 33.56 97.14 28.80
  Q 94.49 25.82 91.25 23.75
  C 85.42 18.60 77.74 20.15 74.18 26.76
  Q 71.37 31.97 75.40 37.93
  Q 74.74 37.74 75.17 38.77
  A 2.17 1.95 15.3 0 0 75.57 39.39
  L 83.46 47.95
  Q 76.13 59.92 66.90 70.52
  Q 46.27 94.20 25.16 117.43
  Q 21.57 121.39 11.88 130.48
  Q 24.87 73.63 37.93 16.84
  Q 39.56 9.75 41.26 7.79
  Q 44.39 4.20 49.13 3.10
  A 4.40 4.25 -50.8 0 1 50.14 2.98
  L 123.20 2.89
  Z"
/>
<path fill="#4477d0" d="
  M 236.33 6.80
  Q 237.57 9.62 237.06 12.24
  Q 235.50 20.31 231.39 37.28
  Q 220.95 47.47 212.68 56.73
  Q 192.26 79.59 157.34 119.21
  Q 152.77 124.39 143.77 135.99
  L 116.88 135.99
  A 3.47 3.07 -48.6 0 0 116.08 136.09
  Q 110.81 137.49 109.40 142.14
  Q 106.81 150.71 115.32 154.95
  Q 114.73 154.63 115.69 155.56
  C 116.10 164.17 112.31 171.40 108.93 179.06
  L 96.95 179.13
  L 45.26 178.90
  A 0.27 0.27 0.0 0 1 45.04 178.48
  L 57.50 161.30
  Q 60.86 161.00 62.68 159.69
  Q 135.04 107.72 143.50 101.77
  C 148.76 98.07 152.01 92.83 150.02 86.17
  A 3.59 3.37 22.1 0 0 149.61 85.28
  Q 147.59 82.08 145.13 79.63
  Q 138.83 73.34 132.67 66.90
  Q 144.16 61.10 152.75 51.53
  C 169.49 32.86 181.49 17.90 198.81 3.48
  A 1.52 1.51 -65.2 0 1 199.75 3.13
  Q 217.44 2.89 227.83 3.19
  Q 232.67 3.34 236.33 6.80
  Z"
/>
<path fill="#4f8bf3" d="
  M 235.53 2.98
  C 239.61 6.42 239.48 10.69 238.27 15.97
  Q 228.02 60.58 204.31 164.38
  Q 202.37 172.87 200.58 175.08
  Q 197.05 179.42 191.59 180.81
  A 5.69 5.47 36.6 0 1 190.18 180.99
  L 90.03 180.96
  Q 93.76 180.64 96.95 179.13
  L 108.93 179.06
  Q 145.21 179.08 181.43 179.04
  C 189.81 179.03 193.71 179.62 198.48 174.46
  Q 200.41 172.38 202.42 163.59
  Q 216.87 100.43 231.39 37.28
  Q 235.50 20.31 237.06 12.24
  Q 237.57 9.62 236.33 6.80
  L 235.53 2.98
  Z"
/>
<path fill="#ffffff" d="
  M 91.25 23.75
  Q 116.54 50.82 141.90 77.61
  C 143.33 79.11 147.02 82.65 147.74 85.48
  C 149.20 91.25 146.22 95.77 141.43 99.18
  Q 124.27 111.36 63.38 155.21
  Q 59.18 158.23 56.38 158.47
  Q 51.46 158.89 46.99 154.61
  Q 46.54 153.47 45.91 152.13
  C 43.83 147.70 44.84 142.47 48.69 139.69
  Q 83.94 114.21 120.69 87.56
  Q 121.59 87.19 120.74 86.26
  Q 108.34 72.58 75.40 37.93
  Q 71.37 31.97 74.18 26.76
  C 77.74 20.15 85.42 18.60 91.25 23.75
  Z"
/>
<path fill="#3460a6" d="
  M 110.45 43.07
  L 132.67 66.90
  Q 138.83 73.34 145.13 79.63
  Q 147.59 82.08 149.61 85.28
  A 3.59 3.37 22.1 0 1 150.02 86.17
  C 152.01 92.83 148.76 98.07 143.50 101.77
  Q 135.04 107.72 62.68 159.69
  Q 60.86 161.00 57.50 161.30
  Q 49.60 161.03 46.99 154.61
  Q 51.46 158.89 56.38 158.47
  Q 59.18 158.23 63.38 155.21
  Q 124.27 111.36 141.43 99.18
  C 146.22 95.77 149.20 91.25 147.74 85.48
  C 147.02 82.65 143.33 79.11 141.90 77.61
  Q 116.54 50.82 91.25 23.75
  Q 94.49 25.82 97.14 28.80
  Q 101.35 33.56 101.42 33.62
  Q 106.01 38.30 110.45 43.07
  Z"
/>
<path fill="#3e6ec0" d="
  M 231.39 37.28
  Q 216.87 100.43 202.42 163.59
  Q 200.41 172.38 198.48 174.46
  C 193.71 179.62 189.81 179.03 181.43 179.04
  Q 145.21 179.08 108.93 179.06
  C 112.31 171.40 116.10 164.17 115.69 155.56
  Q 117.78 156.37 118.38 156.37
  Q 141.05 156.42 163.76 156.38
  A 6.23 6.17 -57.8 0 0 166.48 155.75
  Q 174.58 151.82 171.14 143.12
  Q 169.69 139.12 166.73 137.31
  Q 164.62 136.02 159.53 136.00
  Q 151.67 135.96 143.77 135.99
  Q 152.77 124.39 157.34 119.21
  Q 192.26 79.59 212.68 56.73
  Q 220.95 47.47 231.39 37.28
  Z"
/>
<path fill="#3460a6" d="
  M 75.40 37.93
  Q 108.34 72.58 120.74 86.26
  Q 121.59 87.19 120.69 87.56
  L 83.46 47.95
  L 75.57 39.39
  A 2.17 1.95 15.3 0 1 75.17 38.77
  Q 74.74 37.74 75.40 37.93
  Z"
/>
<path fill="#4a81e3" d="
  M 83.46 47.95
  L 120.69 87.56
  Q 83.94 114.21 48.69 139.69
  C 44.84 142.47 43.83 147.70 45.91 152.13
  Q 46.54 153.47 46.99 154.61
  Q 49.60 161.03 57.50 161.30
  L 45.04 178.48
  A 0.27 0.27 0.0 0 0 45.26 178.90
  L 96.95 179.13
  Q 93.76 180.64 90.03 180.96
  L 9.15 180.96
  A 3.12 2.76 48.6 0 1 8.43 180.87
  C 1.36 179.15 -0.15 172.63 1.65 166.39
  L 3.70 165.13
  A 1.20 1.17 80.9 0 0 4.23 164.38
  L 11.88 130.48
  Q 21.57 121.39 25.16 117.43
  Q 46.27 94.20 66.90 70.52
  Q 76.13 59.92 83.46 47.95
  Z"
/>
<path fill="#ffffff" d="
  M 143.77 135.99
  Q 151.67 135.96 159.53 136.00
  Q 164.62 136.02 166.73 137.31
  Q 169.69 139.12 171.14 143.12
  Q 171.87 152.01 164.83 154.72
  A 4.77 4.61 -54.4 0 1 163.08 155.04
  L 115.32 154.95
  Q 106.81 150.71 109.40 142.14
  Q 110.81 137.49 116.08 136.09
  A 3.47 3.07 -48.6 0 1 116.88 135.99
  L 143.77 135.99
  Z"
/>
<path fill="#3460a6" d="
  M 115.69 155.56
  Q 114.73 154.63 115.32 154.95
  L 163.08 155.04
  A 4.77 4.61 -54.4 0 0 164.83 154.72
  Q 171.87 152.01 171.14 143.12
  Q 174.58 151.82 166.48 155.75
  A 6.23 6.17 -57.8 0 1 163.76 156.38
  Q 141.05 156.42 118.38 156.37
  Q 117.78 156.37 115.69 155.56
  Z"
/>
</svg>
