<svg xmlns="http://www.w3.org/2000/svg" width="800" height="800" viewBox="0 0 32 32" fill="none" xmlns:v="https://vecta.io/nano"><g fill-rule="evenodd"><path d="M13.016 2c-2.197 0-3.978 1.725-3.978 3.852v2.667h6.885v.741H5.978C3.781 9.259 2 10.984 2 13.111v5.778c0 2.127 1.781 3.852 3.978 3.852h2.295v-3.259c0-2.127 1.781-3.852 3.978-3.852h7.344c1.859 0 3.366-1.459 3.366-3.259V5.852C22.962 3.725 21.181 2 18.984 2h-5.967zm-.918 4.741c.761 0 1.377-.597 1.377-1.333s-.617-1.333-1.377-1.333-1.377.597-1.377 1.333.617 1.333 1.377 1.333z" fill="url(#A)"/><path d="M18.983 30c2.197 0 3.978-1.724 3.978-3.852v-2.667h-6.885v-.741h9.945c2.197 0 3.978-1.725 3.978-3.852v-5.778c0-2.127-1.781-3.852-3.978-3.852h-2.295v3.259c0 2.127-1.781 3.852-3.978 3.852h-7.344c-1.859 0-3.366 1.459-3.366 3.259v6.519c0 2.127 1.781 3.852 3.978 3.852h5.967zm.918-4.741c-.761 0-1.377.597-1.377 1.333s.616 1.333 1.377 1.333 1.377-.597 1.377-1.333-.617-1.333-1.377-1.333z" fill="url(#B)"/></g><defs><linearGradient id="A" x1="12.481" y1="2" x2="12.481" y2="22.741" gradientUnits="userSpaceOnUse"><stop stop-color="#327ebd"/><stop offset="1" stop-color="#1565a7"/></linearGradient><linearGradient id="B" x1="19.519" y1="9.259" x2="19.519" y2="30" gradientUnits="userSpaceOnUse"><stop stop-color="#ffda4b"/><stop offset="1" stop-color="#f9c600"/></linearGradient></defs></svg>