<?xml version="1.0" encoding="UTF-8" standalone="no"?>
<!DOCTYPE svg PUBLIC "-//W3C//DTD SVG 1.1//EN" "http://www.w3.org/Graphics/SVG/1.1/DTD/svg11.dtd">
<svg xmlns="http://www.w3.org/2000/svg" version="1.1" viewBox="0.00 0.00 256.00 256.00">
<g stroke-width="2.00" fill="none" stroke-linecap="butt">
<path stroke="#337ab7" vector-effect="non-scaling-stroke" d="
  M 241.02 62.10
  L 201.71 84.55"
/>
<path stroke="#b2cde9" vector-effect="non-scaling-stroke" d="
  M 201.71 84.55
  Q 185.80 58.32 158.02 47.94
  C 133.80 38.89 106.20 41.37 83.94 54.76
  C 44.60 78.44 30.97 128.60 53.03 169.14"
/>
<path stroke="#336faa" vector-effect="non-scaling-stroke" d="
  M 53.03 169.14
  L 13.61 191.55"
/>
<path stroke="#80acce" vector-effect="non-scaling-stroke" d="
  M 201.71 84.55
  L 164.45 105.80"
/>
<path stroke="#b2cde9" vector-effect="non-scaling-stroke" d="
  M 164.45 105.80
  Q 153.34 88.55 134.25 85.79
  C 99.94 80.82 73.86 117.06 90.31 147.93"
/>
<path stroke="#80a2c1" vector-effect="non-scaling-stroke" d="
  M 90.31 147.93
  C 106.74 177.39 147.12 178.07 164.83 149.46"
/>
<path stroke="#80acce" vector-effect="non-scaling-stroke" d="
  M 164.83 149.46
  L 202.40 170.09"
/>
<path stroke="#80a2c1" vector-effect="non-scaling-stroke" d="
  M 202.40 170.09
  C 169.29 228.11 85.96 227.48 53.03 169.14"
/>
<path stroke="#004f8f" vector-effect="non-scaling-stroke" d="
  M 242.12 191.99
  L 202.40 170.09"
/>
<path stroke="#004f8f" vector-effect="non-scaling-stroke" d="
  M 164.83 149.46
  L 125.58 127.87"
/>
<path stroke="#337ab7" vector-effect="non-scaling-stroke" d="
  M 125.58 127.87
  L 164.45 105.80"
/>
<path stroke="#336faa" vector-effect="non-scaling-stroke" d="
  M 125.58 127.87
  L 90.31 147.93"
/>
</g>
<path fill="#659ad2" d="
  M 130.13 0.00
  C 131.92 0.48 133.53 0.95 135.20 1.88
  Q 186.04 30.25 236.91 58.57
  Q 239.15 59.82 241.02 62.10
  L 201.71 84.55
  Q 185.80 58.32 158.02 47.94
  C 133.80 38.89 106.20 41.37 83.94 54.76
  C 44.60 78.44 30.97 128.60 53.03 169.14
  L 13.61 191.55
  Q 12.03 188.74 12.03 185.50
  Q 11.99 108.99 11.99 73.29
  Q 11.99 67.81 12.94 65.35
  Q 14.47 61.39 18.07 59.30
  Q 25.90 54.77 120.86 1.84
  C 122.45 0.95 123.97 0.52 125.66 0.00
  L 130.13 0.00
  Z"
/>
<path fill="#ffffff" d="
  M 201.71 84.55
  L 164.45 105.80
  Q 153.34 88.55 134.25 85.79
  C 99.94 80.82 73.86 117.06 90.31 147.93
  C 106.74 177.39 147.12 178.07 164.83 149.46
  L 202.40 170.09
  C 169.29 228.11 85.96 227.48 53.03 169.14
  C 30.97 128.60 44.60 78.44 83.94 54.76
  C 106.20 41.37 133.80 38.89 158.02 47.94
  Q 185.80 58.32 201.71 84.55
  Z"
/>
<path fill="#00599c" d="
  M 242.12 191.99
  L 202.40 170.09
  L 164.83 149.46
  L 125.58 127.87
  L 164.45 105.80
  L 201.71 84.55
  L 241.02 62.10
  Q 243.98 65.48 243.98 70.50
  Q 244.00 128.50 244.00 186.50
  Q 244.00 188.97 242.12 191.99
  Z"
/>
<path fill="#659ad2" d="
  M 164.45 105.80
  L 125.58 127.87
  L 90.31 147.93
  C 73.86 117.06 99.94 80.82 134.25 85.79
  Q 153.34 88.55 164.45 105.80
  Z"
/>
<path fill="#004482" d="
  M 125.58 127.87
  L 164.83 149.46
  C 147.12 178.07 106.74 177.39 90.31 147.93
  L 125.58 127.87
  Z"
/>
<path fill="#004482" d="
  M 53.03 169.14
  C 85.96 227.48 169.29 228.11 202.40 170.09
  L 242.12 191.99
  Q 240.20 195.08 237.24 196.74
  Q 159.79 240.05 134.16 254.43
  Q 130.45 256.51 126.15 255.80
  Q 123.55 255.37 118.57 252.59
  Q 68.14 224.37 18.15 196.36
  Q 15.43 194.83 13.61 191.55
  L 53.03 169.14
  Z"
/>
</svg>
