<?xml version="1.0" encoding="UTF-8" standalone="no"?>
<!DOCTYPE svg PUBLIC "-//W3C//DTD SVG 1.1//EN" "http://www.w3.org/Graphics/SVG/1.1/DTD/svg11.dtd">
<svg xmlns="http://www.w3.org/2000/svg" version="1.1" viewBox="0.00 0.00 256.00 256.00">
<g stroke-width="2.00" fill="none" stroke-linecap="butt">
<path stroke="#218ecd" vector-effect="non-scaling-stroke" d="
  M 196.33 49.87
  Q 187.57 45.95 179.93 46.01
  Q 135.87 46.35 93.82 45.99
  Q 55.90 45.68 50.50 45.57
  Q 48.79 45.54 47.02 45.71
  A 0.58 0.57 65.8 0 0 46.66 46.67
  L 48.64 48.87"
/>
<path stroke="#35bdfb" vector-effect="non-scaling-stroke" d="
  M 48.64 48.87
  Q 47.19 50.37 47.20 52.08
  Q 47.31 65.68 47.24 79.31
  Q 46.85 163.28 46.92 184.48
  Q 46.94 188.77 48.38 192.91
  A 0.83 0.82 64.0 0 1 48.05 193.87
  Q 47.86 194.00 47.13 193.76"
/>
<path stroke="#218ecd" vector-effect="non-scaling-stroke" d="
  M 47.13 193.76
  Q 45.13 188.05 45.13 181.75
  Q 45.20 114.50 45.11 47.25
  Q 45.11 46.94 44.67 46.94"
/>
<path stroke="#1687c9" vector-effect="non-scaling-stroke" d="
  M 47.13 193.76
  Q 47.61 195.04 47.24 195.80"
/>
<path stroke="#218ecd" vector-effect="non-scaling-stroke" d="
  M 208.47 208.69
  Q 207.84 208.29 207.39 207.61"
/>
<path stroke="#1687c9" vector-effect="non-scaling-stroke" d="
  M 207.39 207.61
  L 48.64 48.87"
/>
<path stroke="#35bdfb" vector-effect="non-scaling-stroke" d="
  M 207.39 207.61
  Q 203.24 208.65 199.19 208.64
  Q 133.90 208.48 68.60 208.77
  Q 65.99 208.78 61.68 210.33"
/>
</g>
<path fill="#40c4ff" d="
  M 196.33 49.87
  Q 187.57 45.95 179.93 46.01
  Q 135.87 46.35 93.82 45.99
  Q 55.90 45.68 50.50 45.57
  Q 48.79 45.54 47.02 45.71
  A 0.58 0.57 65.8 0 0 46.66 46.67
  L 48.64 48.87
  Q 47.19 50.37 47.20 52.08
  Q 47.31 65.68 47.24 79.31
  Q 46.85 163.28 46.92 184.48
  Q 46.94 188.77 48.38 192.91
  A 0.83 0.82 64.0 0 1 48.05 193.87
  Q 47.86 194.00 47.13 193.76
  Q 45.13 188.05 45.13 181.75
  Q 45.20 114.50 45.11 47.25
  Q 45.11 46.94 44.67 46.94
  L 45.08 46.01
  A 1.37 1.37 0.0 0 1 45.72 45.34
  Q 118.14 9.09 124.29 6.05
  Q 138.66 -1.08 152.48 6.97
  Q 155.88 8.95 161.92 15.08
  Q 178.95 32.39 196.33 49.87
  Z"
/>
<path fill="#02589b" d="
  M 196.33 49.87
  Q 222.75 76.21 249.46 102.80
  Q 250.78 104.11 252.60 106.59
  A 1.75 1.69 27.6 0 1 252.94 107.61
  L 252.94 208.07
  A 0.64 0.64 0.0 0 1 252.30 208.71
  L 208.47 208.69
  Q 207.84 208.29 207.39 207.61
  L 48.64 48.87
  L 46.66 46.67
  A 0.58 0.57 65.8 0 1 47.02 45.71
  Q 48.79 45.54 50.50 45.57
  Q 55.90 45.68 93.82 45.99
  Q 135.87 46.35 179.93 46.01
  Q 187.57 45.95 196.33 49.87
  Z"
/>
<path fill="#02589b" d="
  M 44.67 46.94
  Q 45.11 46.94 45.11 47.25
  Q 45.20 114.50 45.13 181.75
  Q 45.13 188.05 47.13 193.76
  Q 47.61 195.04 47.24 195.80
  Q 30.64 179.23 14.07 162.68
  Q 9.89 158.50 8.56 156.71
  Q 1.22 146.84 2.87 136.11
  Q 3.33 133.10 10.31 118.52
  Q 27.46 82.71 44.67 46.94
  Z"
/>
<path fill="#2ab6f6" d="
  M 207.39 207.61
  Q 203.24 208.65 199.19 208.64
  Q 133.90 208.48 68.60 208.77
  Q 65.99 208.78 61.68 210.33
  L 47.24 195.80
  Q 47.61 195.04 47.13 193.76
  Q 47.86 194.00 48.05 193.87
  A 0.83 0.82 64.0 0 0 48.38 192.91
  Q 46.94 188.77 46.92 184.48
  Q 46.85 163.28 47.24 79.31
  Q 47.31 65.68 47.20 52.08
  Q 47.19 50.37 48.64 48.87
  L 207.39 207.61
  Z"
/>
<path fill="#40c4ff" d="
  M 207.39 207.61
  Q 207.84 208.29 208.47 208.69
  L 208.41 252.66
  A 0.52 0.51 90.0 0 1 207.90 253.18
  Q 160.02 253.23 108.52 253.17
  C 104.08 253.17 103.07 251.60 100.11 248.64
  Q 80.91 229.50 61.68 210.33
  Q 65.99 208.78 68.60 208.77
  Q 133.90 208.48 199.19 208.64
  Q 203.24 208.65 207.39 207.61
  Z"
/>
</svg>
