<?xml version="1.0" encoding="UTF-8" standalone="no"?>
<!DOCTYPE svg PUBLIC "-//W3C//DTD SVG 1.1//EN" "http://www.w3.org/Graphics/SVG/1.1/DTD/svg11.dtd">
<svg xmlns="http://www.w3.org/2000/svg" version="1.1" viewBox="0.00 0.00 831.00 256.00">
<path fill="#2c6bca" d="
  M 567.65 249.02
  L 498.81 249.02
  A 2.60 2.60 0.0 0 1 496.81 248.08
  L 487.44 236.78
  A 2.24 2.24 0.0 0 0 484.55 236.30
  Q 455.74 253.89 422.01 255.03
  Q 421.46 255.05 405.99 255.13
  Q 395.94 255.18 390.01 254.58
  Q 372.62 252.81 356.04 246.49
  Q 348.41 243.59 343.77 240.86
  A 2.56 2.53 -89.7 0 1 342.83 239.90
  Q 342.15 238.69 341.87 236.40
  Q 341.27 231.40 336.96 202.34
  Q 329.60 152.60 312.92 40.61
  Q 312.51 37.85 314.54 35.77
  Q 318.58 31.66 323.15 28.13
  C 346.53 10.10 374.36 0.77 404.03 0.96
  Q 418.07 1.05 420.50 1.08
  C 476.41 1.89 528.42 40.54 540.52 96.60
  Q 547.88 130.67 539.50 163.81
  Q 535.50 179.63 525.53 196.34
  A 0.73 0.72 -49.5 0 0 525.59 197.17
  L 567.02 247.02
  A 1.36 0.73 35.8 0 1 567.11 247.16
  L 567.84 248.74
  A 0.20 0.20 0.0 0 1 567.65 249.02
  Z
  M 415.57 148.99
  L 470.10 148.98
  A 1.66 1.65 6.6 0 0 471.71 147.71
  Q 474.90 133.94 473.53 119.51
  Q 471.21 95.03 453.31 78.70
  C 437.32 64.10 415.56 60.13 394.72 64.37
  C 374.88 68.41 357.40 83.54 350.43 102.66
  C 343.39 121.96 344.44 145.54 355.31 163.35
  C 370.82 188.76 398.11 197.10 426.22 191.47
  Q 433.96 189.91 443.32 184.82
  A 0.75 0.75 0.0 0 0 443.54 183.69
  L 415.28 149.61
  A 0.38 0.38 0.0 0 1 415.57 148.99
  Z"
/>
<path fill="#2c6bca" d="
  M 234.97 111.30
  A 0.36 0.36 0.0 0 0 234.29 111.20
  Q 180.83 227.67 172.14 246.88
  C 170.92 249.57 169.50 249.00 166.65 249.03
  Q 157.03 249.14 152.15 248.94
  A 2.37 2.37 0.0 0 1 150.10 247.57
  L 87.17 111.12
  A 0.36 0.36 0.0 0 0 86.49 111.22
  L 68.28 247.93
  A 1.22 1.22 0.0 0 1 67.07 248.99
  Q 9.43 249.00 4.50 249.02
  Q 2.91 249.03 1.62 249.45
  A 0.42 0.41 80.3 0 1 1.08 249.06
  Q 1.04 245.56 1.72 241.00
  Q 16.25 143.19 37.03 6.74
  A 0.85 0.84 -85.6 0 1 37.86 6.02
  Q 59.44 5.98 100.51 6.01
  Q 103.65 6.01 104.81 8.76
  Q 113.20 28.59 155.08 125.21
  C 156.91 129.42 158.30 133.77 160.41 137.83
  A 0.37 0.36 -46.7 0 0 161.07 137.81
  Q 191.05 68.88 217.35 8.36
  Q 218.38 5.99 221.52 5.99
  Q 244.31 6.01 284.34 6.09
  A 0.90 0.90 0.0 0 1 285.23 6.86
  L 321.00 247.94
  A 0.92 0.91 -4.3 0 1 320.09 248.99
  L 255.23 248.99
  A 1.72 1.71 86.2 0 1 253.53 247.50
  L 234.97 111.30
  Z"
/>
<path fill="#2c6bca" d="
  M 543.73 6.03
  Q 568.99 5.90 607.79 6.07
  Q 610.14 6.08 610.53 6.69
  C 611.11 7.58 610.98 9.03 610.99 10.18
  Q 611.00 11.30 611.00 187.69
  A 0.32 0.32 0.0 0 0 611.32 188.01
  L 694.77 188.01
  A 0.72 0.72 0.0 0 1 695.49 188.81
  L 689.21 247.92
  A 1.21 1.20 2.9 0 1 688.01 249.00
  Q 655.95 248.99 601.25 249.01
  Q 598.15 249.01 596.39 248.55
  A 1.70 1.69 -12.1 0 1 595.50 247.98
  L 552.25 195.82
  A 1.40 1.40 0.0 0 1 552.01 194.44
  Q 553.32 190.81 555.70 185.45
  Q 557.96 180.36 561.17 169.12
  Q 563.53 160.90 564.69 152.26
  Q 568.93 120.76 562.40 91.55
  Q 557.53 69.77 544.40 48.86
  Q 543.09 46.78 543.03 42.25
  Q 542.84 25.64 543.06 6.69
  A 0.67 0.67 0.0 0 1 543.73 6.03
  Z"
/>
<path fill="#f89f04" d="
  M 831.00 160.73
  L 831.00 180.28
  Q 827.39 214.24 800.70 235.48
  C 778.07 253.50 749.59 257.37 721.13 253.13
  Q 716.64 252.47 712.62 251.07
  A 1.37 1.36 -77.7 0 1 711.71 249.64
  L 718.12 189.34
  A 0.28 0.27 24.1 0 1 718.58 189.17
  Q 722.56 192.86 725.62 194.65
  Q 737.30 201.47 750.34 197.08
  C 756.16 195.13 760.71 191.77 763.92 186.20
  Q 769.73 176.11 767.62 164.32
  Q 764.08 144.51 744.12 141.39
  Q 741.61 141.00 735.75 141.00
  Q 664.89 140.99 657.05 141.02
  A 1.30 1.29 3.0 0 1 655.76 139.59
  L 669.89 6.58
  A 0.64 0.63 -87.0 0 1 670.52 6.01
  L 812.08 6.01
  A 1.12 1.12 0.0 0 1 813.19 7.25
  L 807.36 62.13
  A 1.00 0.99 2.9 0 1 806.37 63.02
  L 720.66 63.02
  A 0.50 0.49 2.5 0 0 720.16 63.47
  L 717.51 88.41
  A 0.52 0.51 -86.4 0 0 718.01 88.98
  Q 723.84 89.03 737.74 88.87
  C 758.19 88.62 777.93 92.55 795.28 103.48
  Q 819.33 118.63 828.17 145.61
  Q 829.94 151.01 831.00 160.73
  Z"
/>
</svg>
