<?xml version="1.0" encoding="UTF-8" standalone="no"?>
<!DOCTYPE svg PUBLIC "-//W3C//DTD SVG 1.1//EN" "http://www.w3.org/Graphics/SVG/1.1/DTD/svg11.dtd">
<svg xmlns="http://www.w3.org/2000/svg" version="1.1" viewBox="0.00 0.00 256.00 256.00">
<g stroke-width="2.00" fill="none" stroke-linecap="butt">
<path stroke="#2c7fc2" vector-effect="non-scaling-stroke" d="
  M 127.85 153.67
  L 127.73 179.44"
/>
<path stroke="#2c7fc2" vector-effect="non-scaling-stroke" d="
  M 127.99 196.70
  L 127.83 212.85
  A 0.33 0.32 -6.7 0 0 128.24 213.17
  L 170.34 201.50
  A 0.80 0.79 -5.7 0 0 170.93 200.79
  L 180.86 88.86
  A 0.65 0.65 0.0 0 0 180.21 88.15
  L 128.32 88.15
  A 0.51 0.51 0.0 0 0 127.81 88.65
  L 127.71 104.44"
/>
</g>
<path fill="#1e63ad" d="
  M 134.42 0.00
  C 138.55 0.70 143.16 0.86 146.83 1.43
  Q 172.46 5.39 193.41 18.11
  C 224.31 36.88 246.34 67.10 253.45 103.27
  Q 255.01 111.21 255.13 114.37
  Q 255.36 120.44 256.00 126.50
  L 256.00 129.49
  Q 255.06 142.27 254.58 146.18
  Q 251.75 169.46 238.44 192.34
  C 219.44 225.01 188.06 246.98 150.95 254.08
  C 146.89 254.86 141.71 255.21 137.09 256.00
  L 118.63 256.00
  Q 105.92 254.72 95.49 252.02
  Q 66.82 244.58 44.48 225.21
  Q 11.37 196.51 2.38 153.69
  C 1.31 148.58 0.81 143.02 0.00 137.63
  L 0.00 118.63
  Q 0.61 113.81 1.30 109.04
  Q 2.12 103.35 3.01 99.54
  C 14.70 49.55 53.98 11.80 104.49 2.13
  C 109.60 1.15 115.47 0.75 121.01 0.00
  L 134.42 0.00
  Z
  M 237.23 128.08
  A 109.40 109.40 0.0 0 0 127.83 18.68
  A 109.40 109.40 0.0 0 0 18.43 128.08
  A 109.40 109.40 0.0 0 0 127.83 237.48
  A 109.40 109.40 0.0 0 0 237.23 128.08
  Z"
/>
<path fill="#000000" d="
  M 102.13 53.64
  Q 102.13 56.78 102.19 57.50
  A 0.69 0.69 0.0 0 0 102.88 58.13
  L 113.16 58.13
  A 0.31 0.30 -90.0 0 1 113.46 58.44
  L 113.46 65.41
  A 0.37 0.37 0.0 0 1 113.09 65.78
  L 94.11 65.78
  A 0.66 0.66 0.0 0 1 93.45 65.17
  Q 93.38 64.30 93.37 53.65
  Q 93.35 43.00 93.41 42.13
  A 0.66 0.66 0.0 0 1 94.07 41.52
  L 113.05 41.46
  A 0.37 0.37 0.0 0 1 113.42 41.82
  L 113.44 48.79
  A 0.31 0.30 89.8 0 1 113.15 49.11
  L 102.87 49.14
  A 0.69 0.69 0.0 0 0 102.18 49.77
  Q 102.12 50.49 102.13 53.64
  Z"
/>
<path fill="#000000" d="
  M 130.76 50.74
  Q 137.19 57.34 137.41 57.63
  A 1.59 1.59 0.0 0 1 137.80 58.65
  L 137.90 65.12
  A 0.67 0.66 -0.4 0 1 137.23 65.79
  L 118.12 65.79
  A 0.36 0.36 0.0 0 1 117.76 65.43
  L 117.76 58.47
  A 0.31 0.30 -0.0 0 1 118.07 58.17
  L 125.32 58.17
  A 0.45 0.45 0.0 0 0 125.65 57.42
  Q 125.43 57.18 124.84 56.57
  Q 118.41 49.96 118.19 49.67
  A 1.59 1.59 0.0 0 1 117.80 48.66
  L 117.70 42.19
  A 0.67 0.66 -0.4 0 1 118.37 41.52
  L 137.48 41.52
  A 0.36 0.36 0.0 0 1 137.84 41.88
  L 137.84 48.84
  A 0.31 0.30 -0.0 0 1 137.53 49.14
  L 130.28 49.14
  A 0.45 0.45 0.0 0 0 129.95 49.89
  Q 130.17 50.13 130.76 50.74
  Z"
/>
<path fill="#000000" d="
  M 142.33 49.41
  L 142.33 41.88
  A 0.34 0.34 0.0 0 1 142.67 41.54
  L 162.01 41.54
  A 0.34 0.34 0.0 0 1 162.35 41.88
  L 162.35 48.74
  A 0.34 0.34 0.0 0 1 162.01 49.08
  L 154.13 49.08
  A 0.34 0.34 0.0 0 0 153.89 49.66
  L 162.25 58.02
  A 0.34 0.34 0.0 0 1 162.35 58.26
  L 162.35 65.47
  A 0.34 0.34 0.0 0 1 162.01 65.81
  L 142.64 65.81
  A 0.34 0.34 0.0 0 1 142.30 65.47
  L 142.30 58.43
  A 0.34 0.34 0.0 0 1 142.64 58.09
  L 150.04 58.09
  A 0.34 0.34 0.0 0 0 150.28 57.51
  L 142.43 49.65
  A 0.34 0.34 0.0 0 1 142.33 49.41
  Z"
/>
<path fill="#1e63ad" d="
  M 127.85 77.33
  Q 186.42 77.33 192.22 77.34
  A 0.52 0.51 -87.4 0 1 192.73 77.90
  L 181.09 209.17
  A 0.90 0.90 0.0 0 1 180.44 209.96
  Q 146.47 219.47 128.25 224.50
  Q 128.14 224.53 127.86 224.53
  Q 127.59 224.53 127.47 224.50
  Q 109.26 219.47 75.29 209.97
  A 0.90 0.90 0.0 0 1 74.64 209.18
  L 62.96 77.92
  A 0.52 0.51 87.4 0 1 63.47 77.35
  Q 69.27 77.34 127.85 77.33
  Z
  M 127.71 104.44
  L 87.85 104.44
  A 0.72 0.72 0.0 0 0 87.13 105.22
  L 88.36 120.02
  A 0.76 0.75 87.5 0 0 89.11 120.71
  L 127.31 120.71
  A 0.30 0.30 0.0 0 1 127.43 121.29
  L 90.44 137.20
  A 0.56 0.55 -14.3 0 0 90.11 137.75
  L 91.39 153.08
  A 0.60 0.60 0.0 0 0 91.99 153.64
  L 127.85 153.67
  L 127.73 179.44
  L 110.87 175.03
  A 1.74 1.73 -85.1 0 1 109.58 173.49
  L 108.61 161.92
  A 0.36 0.36 0.0 0 0 108.25 161.58
  L 92.70 161.58
  A 0.47 0.47 0.0 0 0 92.23 162.09
  L 94.29 186.84
  A 0.70 0.69 -84.6 0 0 94.79 187.45
  L 127.99 196.70
  L 127.83 212.85
  A 0.33 0.32 -6.7 0 0 128.24 213.17
  L 170.34 201.50
  A 0.80 0.79 -5.7 0 0 170.93 200.79
  L 180.86 88.86
  A 0.65 0.65 0.0 0 0 180.21 88.15
  L 128.32 88.15
  A 0.51 0.51 0.0 0 0 127.81 88.65
  L 127.71 104.44
  Z"
/>
<path fill="#399bd6" d="
  M 127.99 196.70
  L 160.78 187.51
  A 0.79 0.77 -5.6 0 0 161.34 186.84
  L 165.69 137.78
  A 0.64 0.64 0.0 0 0 165.05 137.08
  L 128.49 137.08
  A 0.18 0.18 0.0 0 1 128.42 136.74
  L 166.50 121.20
  A 1.26 1.25 81.5 0 0 167.27 120.15
  L 168.63 104.79
  A 0.33 0.32 3.1 0 0 168.30 104.43
  L 127.71 104.44
  L 127.81 88.65
  A 0.51 0.51 0.0 0 1 128.32 88.15
  L 180.21 88.15
  A 0.65 0.65 0.0 0 1 180.86 88.86
  L 170.93 200.79
  A 0.80 0.79 -5.7 0 1 170.34 201.50
  L 128.24 213.17
  A 0.33 0.32 -6.7 0 1 127.83 212.85
  L 127.99 196.70
  Z"
/>
<path fill="#399bd6" d="
  M 127.73 179.44
  L 127.85 153.67
  L 147.24 153.70
  A 0.40 0.40 0.0 0 1 147.64 154.14
  L 145.87 174.11
  A 0.80 0.79 85.4 0 1 145.28 174.81
  L 127.73 179.44
  Z"
/>
</svg>
