<?xml version="1.0" encoding="UTF-8" standalone="no"?>
<!DOCTYPE svg PUBLIC "-//W3C//DTD SVG 1.1//EN" "http://www.w3.org/Graphics/SVG/1.1/DTD/svg11.dtd">
<svg xmlns="http://www.w3.org/2000/svg" version="1.1" viewBox="0.00 0.00 256.00 256.00">
<path stroke="#edd503" stroke-width="2.00" fill="none" stroke-linecap="butt" vector-effect="non-scaling-stroke" d="
  M 128.33 87.53
  A 0.70 0.70 0.0 0 0 127.63 88.23
  L 127.63 211.82
  A 0.70 0.70 0.0 0 0 128.52 212.49
  L 170.23 200.90
  A 0.70 0.70 0.0 0 0 170.74 200.29
  L 180.66 88.29
  A 0.70 0.70 0.0 0 0 179.97 87.53
  L 128.33 87.53"
/>
<path fill="#e6c900" d="
  M 136.18 0.00
  Q 146.46 1.25 151.00 2.04
  Q 160.26 3.66 168.26 6.46
  Q 202.36 18.39 224.60 44.29
  Q 239.45 61.58 247.51 82.73
  Q 255.39 103.45 255.65 126.73
  Q 256.05 162.37 238.03 192.97
  Q 218.17 226.70 182.39 243.90
  Q 161.69 253.84 137.17 256.00
  L 118.36 256.00
  Q 114.36 255.37 110.34 254.88
  Q 105.82 254.32 102.35 253.61
  Q 83.08 249.69 67.09 240.88
  Q 23.31 216.77 6.42 169.32
  Q 1.99 156.88 0.00 139.73
  L 0.00 116.41
  Q 1.48 104.27 3.97 94.97
  Q 13.11 60.85 38.84 35.87
  Q 65.43 10.07 102.72 2.34
  Q 105.71 1.72 110.92 1.11
  Q 115.04 0.62 119.15 0.00
  L 136.18 0.00
  Z
  M 237.06 128.03
  A 109.35 109.35 0.0 0 0 127.71 18.68
  A 109.35 109.35 0.0 0 0 18.36 128.03
  A 109.35 109.35 0.0 0 0 127.71 237.38
  A 109.35 109.35 0.0 0 0 237.06 128.03
  Z"
/>
<path fill="#000000" d="
  M 110.66 41.45
  L 110.66 58.84
  A 0.56 0.56 0.0 0 1 110.10 59.40
  L 99.59 59.40
  A 0.56 0.56 0.0 0 0 99.03 59.96
  L 99.03 64.51
  A 0.56 0.56 0.0 0 1 98.47 65.07
  L 91.23 65.07
  A 0.56 0.56 0.0 0 1 90.67 64.51
  L 90.67 41.45
  A 0.56 0.56 0.0 0 1 91.23 40.89
  L 110.10 40.89
  A 0.56 0.56 0.0 0 1 110.66 41.45
  Z
  M 102.3136 49.5851
  A 0.73 0.73 0.0 0 0 101.6255 48.8155
  L 99.7085 48.7083
  A 0.73 0.73 0.0 0 0 98.9389 49.3964
  L 98.8864 50.3349
  A 0.73 0.73 0.0 0 0 99.5745 51.1045
  L 101.4915 51.2117
  A 0.73 0.73 0.0 0 0 102.2611 50.5236
  L 102.3136 49.5851
  Z"
/>
<path fill="#000000" d="
  M 127.72 48.91
  Q 130.35 48.91 130.76 48.86
  A 0.67 0.67 0.0 0 0 131.42 48.19
  L 131.42 41.71
  A 0.76 0.76 0.0 0 1 132.18 40.95
  L 139.07 40.95
  A 0.77 0.76 -0.1 0 1 139.84 41.71
  Q 139.85 42.36 139.85 53.04
  Q 139.86 63.72 139.85 64.37
  A 0.77 0.76 0.1 0 1 139.08 65.13
  L 132.19 65.14
  A 0.76 0.76 0.0 0 1 131.43 64.38
  L 131.42 57.90
  A 0.67 0.67 0.0 0 0 130.77 57.23
  Q 130.35 57.18 127.72 57.18
  Q 125.08 57.18 124.67 57.23
  A 0.67 0.67 0.0 0 0 124.01 57.90
  L 124.01 64.38
  A 0.76 0.76 0.0 0 1 123.25 65.14
  L 116.36 65.14
  A 0.77 0.76 -0.1 0 1 115.59 64.38
  Q 115.58 63.73 115.58 53.05
  Q 115.58 42.37 115.58 41.72
  A 0.77 0.76 0.1 0 1 116.35 40.96
  L 123.24 40.95
  A 0.76 0.76 0.0 0 1 124.00 41.71
  L 124.01 48.19
  A 0.67 0.67 0.0 0 0 124.67 48.87
  Q 125.08 48.91 127.72 48.91
  Z"
/>
<path fill="#000000" d="
  M 144.86 41.65
  A 0.74 0.74 0.0 0 1 145.59 40.92
  L 164.14 40.90
  A 0.69 0.68 -0.2 0 1 164.83 41.58
  L 164.84 58.83
  A 0.56 0.56 0.0 0 1 164.28 59.39
  L 153.83 59.40
  A 0.62 0.62 0.0 0 0 153.21 60.03
  L 153.28 63.99
  A 1.06 1.06 0.0 0 1 152.22 65.07
  L 146.12 65.13
  A 1.25 1.24 89.8 0 1 144.87 63.88
  L 144.86 41.65
  Z
  M 156.3736 49.5821
  A 0.87 0.87 0.0 0 0 155.4886 48.7274
  L 154.0288 48.7529
  A 0.87 0.87 0.0 0 0 153.1741 49.6380
  L 153.1864 50.3379
  A 0.87 0.87 0.0 0 0 154.0714 51.1926
  L 155.5312 51.1671
  A 0.87 0.87 0.0 0 0 156.3859 50.2820
  L 156.3736 49.5821
  Z"
/>
<path fill="#e6c900" d="
  M 127.70 76.80
  Q 187.01 76.80 192.15 76.81
  A 0.46 0.46 0.0 0 1 192.61 77.31
  L 180.96 208.81
  A 0.69 0.68 84.5 0 1 180.47 209.41
  Q 149.52 218.01 128.00 224.04
  Q 127.82 224.09 127.70 224.09
  Q 127.58 224.09 127.41 224.04
  Q 105.89 218.01 74.94 209.42
  A 0.69 0.68 -84.5 0 1 74.44 208.82
  L 62.78 77.32
  A 0.46 0.46 0.0 0 1 63.24 76.82
  Q 68.38 76.81 127.70 76.80
  Z
  M 128.33 87.53
  A 0.70 0.70 0.0 0 0 127.63 88.23
  L 127.63 211.82
  A 0.70 0.70 0.0 0 0 128.52 212.49
  L 170.23 200.90
  A 0.70 0.70 0.0 0 0 170.74 200.29
  L 180.66 88.29
  A 0.70 0.70 0.0 0 0 179.97 87.53
  L 128.33 87.53
  Z
  M 122.91 136.27
  A 0.30 0.30 0.0 0 0 123.09 136.00
  L 123.09 122.25
  A 0.30 0.30 0.0 0 0 122.67 121.98
  L 78.34 141.68
  A 0.30 0.30 0.0 0 0 78.16 141.98
  L 79.89 160.56
  A 0.30 0.30 0.0 0 0 80.07 160.81
  L 122.67 179.04
  A 0.30 0.30 0.0 0 0 123.09 178.77
  L 123.09 164.89
  A 0.30 0.30 0.0 0 0 122.91 164.61
  L 91.05 150.98
  A 0.30 0.30 0.0 0 1 91.05 150.43
  L 122.91 136.27
  Z"
/>
<path fill="#f4e105" d="
  M 128.33 87.53
  L 179.97 87.53
  A 0.70 0.70 0.0 0 1 180.66 88.29
  L 170.74 200.29
  A 0.70 0.70 0.0 0 1 170.23 200.90
  L 128.52 212.49
  A 0.70 0.70 0.0 0 1 127.63 211.82
  L 127.63 88.23
  A 0.70 0.70 0.0 0 1 128.33 87.53
  Z
  M 158.44 126.78
  L 157.43 138.25
  A 1.74 1.73 -5.1 0 1 156.16 139.76
  L 144.59 142.98
  A 0.89 0.87 -7.9 0 0 143.94 143.82
  L 143.94 171.77
  A 0.54 0.54 0.0 0 0 144.48 172.31
  L 155.68 172.31
  A 0.64 0.64 0.0 0 0 156.32 171.67
  L 156.32 155.91
  A 1.35 1.34 82.4 0 1 157.31 154.61
  L 169.31 151.28
  A 0.87 0.85 84.7 0 0 169.93 150.52
  L 173.02 115.64
  A 0.47 0.47 0.0 0 0 172.68 115.14
  L 151.80 108.77
  A 1.71 1.65 -44.0 0 0 150.85 108.77
  L 132.08 114.44
  A 0.91 0.91 0.0 0 0 131.44 115.31
  L 131.44 137.53
  A 0.67 0.67 0.0 0 0 132.11 138.20
  L 143.44 138.20
  A 0.50 0.49 0.0 0 0 143.94 137.71
  L 143.94 126.97
  A 0.88 0.88 0.0 0 1 144.50 126.15
  Q 148.71 124.51 152.26 124.55
  A 2.88 2.88 0.0 0 1 152.89 124.64
  L 157.94 126.06
  A 0.68 0.68 0.0 0 1 158.44 126.78
  Z
  M 156.32 175.48
  A 0.41 0.41 0.0 0 0 155.91 175.07
  L 144.36 175.07
  A 0.41 0.41 0.0 0 0 143.95 175.48
  L 143.95 189.78
  A 0.41 0.41 0.0 0 0 144.47 190.18
  L 156.02 186.96
  A 0.41 0.41 0.0 0 0 156.32 186.57
  L 156.32 175.48
  Z"
/>
</svg>
