<?xml version="1.0" encoding="UTF-8" standalone="no"?>
<!DOCTYPE svg PUBLIC "-//W3C//DTD SVG 1.1//EN" "http://www.w3.org/Graphics/SVG/1.1/DTD/svg11.dtd">
<svg xmlns="http://www.w3.org/2000/svg" version="1.1" viewBox="0.00 0.00 256.00 256.00">
<g stroke-width="2.00" fill="none" stroke-linecap="butt">
<path stroke="#e95b29" vector-effect="non-scaling-stroke" d="
  M 128.32 153.59
  Q 127.39 166.20 128.04 179.43"
/>
<path stroke="#e95b29" vector-effect="non-scaling-stroke" d="
  M 128.09 196.64
  L 127.88 212.76
  A 0.39 0.39 0.0 0 0 128.38 213.14
  L 170.13 201.54
  A 1.02 1.01 -5.4 0 0 170.87 200.65
  L 180.89 88.82
  A 0.60 0.60 0.0 0 0 180.29 88.17
  L 128.57 88.17
  A 0.72 0.71 -0.0 0 0 127.85 88.88
  L 127.80 104.45"
/>
<path stroke="#e95b29" vector-effect="non-scaling-stroke" d="
  M 127.71 137.14
  L 127.79 120.90"
/>
</g>
<path fill="#e54f27" d="
  M 134.12 0.00
  C 140.41 0.73 147.00 1.21 152.87 2.43
  C 204.78 13.21 244.35 53.06 253.98 105.45
  C 254.92 110.55 255.30 116.33 256.00 121.82
  L 256.00 134.23
  C 255.28 140.75 254.71 147.57 253.44 153.64
  Q 244.84 194.71 214.36 222.60
  Q 182.05 252.17 136.93 256.00
  L 119.10 256.00
  C 114.01 255.20 108.45 254.81 103.86 253.88
  Q 61.28 245.29 32.73 213.50
  Q 8.67 186.72 2.04 150.83
  C 1.09 145.70 0.72 139.86 0.00 134.32
  L 0.00 121.91
  C 0.71 116.12 1.14 109.77 2.15 104.60
  C 11.98 54.29 48.62 15.88 98.25 3.51
  Q 107.23 1.27 113.26 0.82
  Q 119.87 0.34 121.80 0.00
  L 134.12 0.00
  Z
  M 237.41 128.07
  A 109.41 109.41 0.0 0 0 128.00 18.66
  A 109.41 109.41 0.0 0 0 18.59 128.07
  A 109.41 109.41 0.0 0 0 128.00 237.48
  A 109.41 109.41 0.0 0 0 237.41 128.07
  Z"
/>
<path fill="#000000" d="
  M 86.11 49.54
  Q 88.76 49.54 89.38 49.53
  A 0.58 0.58 0.0 0 0 89.94 48.95
  L 89.94 42.04
  A 0.55 0.55 0.0 0 1 90.49 41.49
  L 97.56 41.48
  A 0.64 0.63 -88.1 0 1 98.19 42.16
  Q 98.18 42.33 98.17 53.64
  Q 98.17 64.95 98.18 65.12
  A 0.64 0.63 88.1 0 1 97.56 65.79
  L 90.49 65.78
  A 0.55 0.55 0.0 0 1 89.94 65.23
  L 89.94 58.32
  A 0.58 0.58 0.0 0 0 89.37 57.74
  Q 88.76 57.73 86.11 57.73
  Q 83.45 57.73 82.84 57.74
  A 0.58 0.58 0.0 0 0 82.27 58.32
  L 82.27 65.23
  A 0.55 0.55 0.0 0 1 81.72 65.78
  L 74.65 65.79
  A 0.64 0.63 -88.1 0 1 74.02 65.11
  Q 74.04 64.94 74.04 53.63
  Q 74.04 42.32 74.03 42.15
  A 0.64 0.63 88.1 0 1 74.65 41.47
  L 81.72 41.49
  A 0.55 0.55 0.0 0 1 82.27 42.04
  L 82.27 48.95
  A 0.58 0.58 0.0 0 0 82.84 49.53
  Q 83.45 49.54 86.11 49.54
  Z"
/>
<path fill="#000000" d="
  M 113.88 41.53
  Q 119.60 41.47 124.82 41.44
  A 0.54 0.54 0.0 0 1 125.36 41.98
  L 125.36 49.06
  A 0.61 0.61 0.0 0 1 124.75 49.67
  L 118.80 49.67
  A 0.63 0.63 0.0 0 0 118.17 50.30
  L 118.17 65.11
  A 0.68 0.67 -0.5 0 1 117.50 65.78
  Q 116.89 65.79 114.11 65.82
  Q 111.32 65.84 110.71 65.84
  A 0.68 0.67 -0.6 0 1 110.03 65.18
  L 109.76 50.38
  A 0.63 0.63 0.0 0 0 109.12 49.76
  L 103.17 49.87
  A 0.61 0.61 0.0 0 1 102.55 49.27
  L 102.42 42.19
  A 0.54 0.54 0.0 0 1 102.95 41.64
  Q 108.16 41.57 113.88 41.53
  Z"
/>
<path fill="#000000" d="
  M 143.72 49.65
  Q 143.98 49.65 144.15 49.35
  Q 145.71 46.65 148.63 42.05
  A 1.12 1.10 -73.3 0 1 149.56 41.54
  L 157.12 41.54
  A 0.65 0.65 0.0 0 1 157.77 42.19
  L 157.77 65.40
  A 0.43 0.43 0.0 0 1 157.34 65.83
  L 149.92 65.83
  A 0.44 0.44 0.0 0 1 149.48 65.39
  L 149.48 54.74
  A 0.24 0.24 0.0 0 0 149.04 54.60
  Q 146.25 58.64 144.23 61.92
  Q 144.08 62.17 143.70 62.16
  Q 143.32 62.16 143.18 61.92
  Q 141.17 58.63 138.39 54.58
  A 0.24 0.24 0.0 0 0 137.95 54.72
  L 137.91 65.37
  A 0.44 0.44 0.0 0 1 137.47 65.81
  L 130.05 65.78
  A 0.43 0.43 0.0 0 1 129.62 65.35
  L 129.70 42.14
  A 0.65 0.65 0.0 0 1 130.35 41.49
  L 137.91 41.52
  A 1.12 1.10 73.5 0 1 138.84 42.03
  Q 141.75 46.64 143.29 49.35
  Q 143.47 49.65 143.72 49.65
  Z"
/>
<path fill="#000000" d="
  M 170.61 57.82
  L 181.49 57.82
  A 0.48 0.48 0.0 0 1 181.97 58.30
  L 181.97 65.34
  A 0.48 0.48 0.0 0 1 181.49 65.82
  L 162.42 65.82
  A 0.48 0.48 0.0 0 1 161.94 65.34
  L 161.94 42.00
  A 0.48 0.48 0.0 0 1 162.42 41.52
  L 169.65 41.52
  A 0.48 0.48 0.0 0 1 170.13 42.00
  L 170.13 57.34
  A 0.48 0.48 0.0 0 0 170.61 57.82
  Z"
/>
<path fill="#e54f27" d="
  M 127.83 77.35
  Q 185.30 77.34 192.16 77.37
  A 0.60 0.60 0.0 0 1 192.75 78.02
  L 181.01 209.13
  A 0.97 0.96 -5.3 0 1 180.31 209.97
  Q 146.50 219.44 128.24 224.48
  Q 128.14 224.51 127.84 224.51
  Q 127.54 224.51 127.44 224.48
  Q 109.18 219.44 75.37 209.98
  A 0.97 0.96 5.3 0 1 74.67 209.14
  L 62.90 78.03
  A 0.60 0.60 0.0 0 1 63.49 77.38
  Q 70.36 77.35 127.83 77.35
  Z
  M 127.80 104.45
  L 87.81 104.44
  A 0.73 0.72 87.1 0 0 87.09 105.24
  L 91.48 153.25
  A 0.36 0.35 87.3 0 0 91.83 153.58
  L 128.32 153.59
  Q 127.39 166.20 128.04 179.43
  L 110.75 174.95
  A 1.34 1.33 5.0 0 1 109.76 173.78
  L 108.69 162.10
  A 0.49 0.48 -2.5 0 0 108.20 161.66
  L 92.55 161.66
  A 0.41 0.40 -2.5 0 0 92.14 162.10
  L 94.40 186.76
  A 0.83 0.83 0.0 0 0 95.01 187.49
  L 128.09 196.64
  L 127.88 212.76
  A 0.39 0.39 0.0 0 0 128.38 213.14
  L 170.13 201.54
  A 1.02 1.01 -5.4 0 0 170.87 200.65
  L 180.89 88.82
  A 0.60 0.60 0.0 0 0 180.29 88.17
  L 128.57 88.17
  A 0.72 0.71 -0.0 0 0 127.85 88.88
  L 127.80 104.45
  Z"
/>
<path fill="#ec662b" d="
  M 128.09 196.64
  L 160.75 187.41
  A 0.69 0.68 -5.6 0 0 161.25 186.81
  L 165.65 137.76
  A 0.65 0.64 2.4 0 0 165.00 137.06
  L 127.71 137.14
  L 127.79 120.90
  L 166.54 120.90
  A 0.64 0.63 2.4 0 0 167.18 120.32
  L 168.56 104.90
  A 0.41 0.41 0.0 0 0 168.16 104.45
  L 127.80 104.45
  L 127.85 88.88
  A 0.72 0.71 -0.0 0 1 128.57 88.17
  L 180.29 88.17
  A 0.60 0.60 0.0 0 1 180.89 88.82
  L 170.87 200.65
  A 1.02 1.01 -5.4 0 1 170.13 201.54
  L 128.38 213.14
  A 0.39 0.39 0.0 0 1 127.88 212.76
  L 128.09 196.64
  Z"
/>
<path fill="#e54f27" d="
  M 127.79 120.90
  L 127.71 137.14
  L 106.99 137.10
  A 0.45 0.45 0.0 0 1 106.54 136.69
  L 105.16 121.53
  A 0.58 0.57 87.3 0 1 105.73 120.90
  L 127.79 120.90
  Z"
/>
<path fill="#ec662b" d="
  M 128.04 179.43
  Q 127.39 166.20 128.32 153.59
  L 147.26 153.62
  A 0.44 0.43 -87.6 0 1 147.69 154.10
  L 145.88 174.27
  A 0.46 0.46 0.0 0 1 145.54 174.67
  L 128.04 179.43
  Z"
/>
</svg>
