<?xml version="1.0" encoding="UTF-8" standalone="no"?>
<!DOCTYPE svg PUBLIC "-//W3C//DTD SVG 1.1//EN" "http://www.w3.org/Graphics/SVG/1.1/DTD/svg11.dtd">
<svg xmlns="http://www.w3.org/2000/svg" version="1.1" viewBox="0.00 0.00 256.00 256.00">
<g stroke-width="2.00" fill="none" stroke-linecap="butt">
<path stroke="#78b42b" vector-effect="non-scaling-stroke" d="
  M 127.89 121.06
  L 127.84 179.66"
/>
<path stroke="#78b42b" vector-effect="non-scaling-stroke" d="
  M 128.13 196.84
  L 127.89 212.74
  A 0.48 0.47 -7.0 0 0 128.49 213.20
  L 170.35 201.59
  A 0.93 0.93 0.0 0 0 171.03 200.78
  L 180.94 88.77
  A 0.46 0.46 0.0 0 0 180.48 88.26
  L 128.62 88.26
  A 0.75 0.75 0.0 0 0 127.87 89.01
  L 127.85 104.54"
/>
</g>
<path fill="#63a92f" d="
  M 133.69 0.00
  C 139.56 0.71 145.77 1.09 151.21 2.14
  C 203.73 12.28 243.95 52.34 253.85 105.08
  C 254.91 110.74 255.33 117.11 256.00 123.18
  L 256.00 132.74
  C 255.35 138.66 254.96 144.69 253.95 150.38
  Q 249.81 173.76 238.60 192.40
  Q 208.94 241.72 152.45 253.85
  C 147.70 254.87 141.87 255.17 136.60 256.00
  L 119.38 256.00
  C 114.15 255.24 108.62 254.80 103.79 253.84
  C 51.68 243.46 12.02 203.47 2.10 151.33
  C 1.10 146.10 0.69 140.16 0.00 134.52
  L 0.00 121.81
  C 0.67 115.38 1.27 108.46 2.51 102.62
  C 12.90 53.40 49.09 15.94 97.78 3.63
  Q 106.95 1.31 113.26 0.83
  Q 120.05 0.32 121.93 0.00
  L 133.69 0.00
  Z
  M 237.39 128.08
  A 109.43 109.43 0.0 0 0 127.96 18.65
  A 109.43 109.43 0.0 0 0 18.53 128.08
  A 109.43 109.43 0.0 0 0 127.96 237.51
  A 109.43 109.43 0.0 0 0 237.39 128.08
  Z"
/>
<path fill="#000000" d="
  M 124.72 65.85
  L 103.04 65.85
  A 0.44 0.44 0.0 0 1 102.60 65.41
  L 102.60 57.53
  A 0.44 0.44 0.0 0 1 103.04 57.09
  L 115.71 57.09
  A 0.44 0.44 0.0 0 0 116.15 56.65
  L 116.15 41.96
  A 0.44 0.44 0.0 0 1 116.59 41.52
  L 124.72 41.52
  A 0.44 0.44 0.0 0 1 125.16 41.96
  L 125.16 65.41
  A 0.44 0.44 0.0 0 1 124.72 65.85
  Z"
/>
<path fill="#000000" d="
  M 152.93 58.16
  L 152.93 65.51
  A 0.34 0.34 0.0 0 1 152.59 65.85
  L 130.00 65.85
  A 0.34 0.34 0.0 0 1 129.66 65.51
  L 129.66 58.41
  A 0.34 0.34 0.0 0 1 130.00 58.07
  L 138.54 58.07
  A 0.34 0.34 0.0 0 0 138.75 57.46
  L 129.79 50.54
  A 0.34 0.34 0.0 0 1 129.66 50.27
  L 129.66 41.87
  A 0.34 0.34 0.0 0 1 130.00 41.53
  L 152.61 41.53
  A 0.34 0.34 0.0 0 1 152.95 41.87
  L 152.95 48.81
  A 0.34 0.34 0.0 0 1 152.61 49.15
  L 142.49 49.15
  A 0.34 0.34 0.0 0 0 142.28 49.76
  L 152.80 57.89
  A 0.34 0.34 0.0 0 1 152.93 58.16
  Z"
/>
<path fill="#63a92f" d="
  M 127.94 77.42
  Q 137.71 77.41 192.27 77.38
  A 0.52 0.52 0.0 0 1 192.78 77.94
  L 181.15 209.33
  A 0.75 0.74 -5.6 0 1 180.60 209.99
  Q 176.89 211.02 128.25 224.59
  Q 128.10 224.63 127.97 224.63
  Q 127.83 224.63 127.68 224.59
  Q 79.04 211.04 75.33 210.01
  A 0.75 0.74 5.6 0 1 74.78 209.35
  L 63.10 77.97
  A 0.52 0.52 0.0 0 1 63.61 77.40
  Q 118.16 77.42 127.94 77.42
  Z
  M 127.85 104.54
  L 87.76 104.51
  A 0.58 0.57 -2.3 0 0 87.18 105.13
  L 88.45 120.40
  A 0.70 0.69 -2.2 0 0 89.15 121.04
  L 127.89 121.06
  L 127.84 179.66
  L 110.66 175.05
  A 1.27 1.27 0.0 0 1 109.73 173.94
  L 108.76 162.28
  A 0.46 0.45 -2.0 0 0 108.30 161.86
  L 92.63 161.86
  A 0.34 0.33 -2.3 0 0 92.29 162.22
  L 94.32 186.63
  A 1.32 1.31 -85.0 0 0 95.28 187.79
  L 128.13 196.84
  L 127.89 212.74
  A 0.48 0.47 -7.0 0 0 128.49 213.20
  L 170.35 201.59
  A 0.93 0.93 0.0 0 0 171.03 200.78
  L 180.94 88.77
  A 0.46 0.46 0.0 0 0 180.48 88.26
  L 128.62 88.26
  A 0.75 0.75 0.0 0 0 127.87 89.01
  L 127.85 104.54
  Z"
/>
<path fill="#8dbf27" d="
  M 128.13 196.84
  L 160.41 187.77
  A 0.93 0.93 0.0 0 0 161.05 187.17
  Q 161.62 185.51 161.77 183.75
  Q 164.09 155.28 166.96 124.84
  C 167.49 119.26 167.87 111.78 168.80 105.33
  A 0.70 0.70 0.0 0 0 168.11 104.53
  L 127.85 104.54
  L 127.87 89.01
  A 0.75 0.75 0.0 0 1 128.62 88.26
  L 180.48 88.26
  A 0.46 0.46 0.0 0 1 180.94 88.77
  L 171.03 200.78
  A 0.93 0.93 0.0 0 1 170.35 201.59
  L 128.49 213.20
  A 0.48 0.47 -7.0 0 1 127.89 212.74
  L 128.13 196.84
  Z"
/>
<path fill="#8dbf27" d="
  M 127.84 179.66
  L 127.89 121.06
  L 150.10 121.11
  A 0.51 0.50 2.6 0 1 150.61 121.66
  L 145.94 174.40
  A 0.71 0.70 -5.4 0 1 145.42 175.02
  L 127.84 179.66
  Z"
/>
</svg>
