<?xml version="1.0" encoding="UTF-8" standalone="no"?>
<!DOCTYPE svg PUBLIC "-//W3C//DTD SVG 1.1//EN" "http://www.w3.org/Graphics/SVG/1.1/DTD/svg11.dtd">
<svg xmlns="http://www.w3.org/2000/svg" version="1.1" viewBox="0.00 0.00 256.00 256.00">
<path stroke="#a75c98" stroke-opacity="0.953" stroke-width="2.00" fill="none" stroke-linecap="butt" vector-effect="non-scaling-stroke" d="
  M 128.01 170.06
  L 128.01 212.03
  A 0.59 0.59 0.0 0 0 128.77 212.60
  L 170.30 201.08
  A 1.21 1.20 -5.7 0 0 171.17 200.03
  L 180.94 88.06
  A 0.63 0.63 0.0 0 0 180.31 87.38
  L 128.72 87.38
  A 0.81 0.81 0.0 0 0 127.91 88.18
  L 127.90 114.86"
/>
<path fill="#9b488d" d="
  M 135.40 0.00
  Q 138.31 1.02 141.49 0.81
  C 142.98 0.72 144.43 1.46 145.45 1.34
  Q 147.01 1.16 151.72 2.28
  Q 153.96 2.81 156.39 3.26
  Q 158.87 3.71 161.06 4.34
  Q 201.62 15.83 227.18 47.28
  Q 247.88 72.74 253.95 105.89
  Q 254.47 108.72 254.99 114.14
  Q 255.38 118.31 256.00 122.43
  L 256.00 133.59
  Q 254.84 144.60 253.97 150.00
  Q 252.15 161.16 247.89 172.49
  Q 235.38 205.73 208.23 227.67
  Q 183.63 247.56 151.61 253.88
  C 146.53 254.88 140.11 255.37 134.36 256.00
  L 120.77 256.00
  Q 116.50 255.14 112.15 255.18
  Q 112.00 255.18 111.88 255.14
  Q 111.67 255.05 111.53 254.96
  A 1.20 1.17 -27.3 0 0 110.81 254.74
  Q 108.77 254.80 105.11 254.00
  Q 101.53 253.22 100.43 253.02
  Q 98.33 252.66 94.04 251.48
  Q 77.33 246.89 62.79 238.21
  Q 39.35 224.22 23.52 201.99
  Q 12.69 186.77 6.65 168.86
  Q 5.00 163.96 4.84 162.32
  A 0.20 0.18 -67.5 0 0 4.80 162.20
  L 4.47 161.79
  A 1.14 1.09 21.9 0 1 4.27 161.35
  Q 3.50 157.64 2.24 151.92
  Q 1.57 148.91 1.05 143.58
  Q 0.64 139.38 0.00 135.21
  L 0.00 122.38
  Q 1.24 107.63 2.20 103.76
  Q 3.49 98.58 3.69 97.81
  Q 5.51 91.02 6.13 89.05
  Q 19.33 47.60 55.99 22.24
  Q 75.29 8.88 97.06 3.87
  Q 102.28 2.66 104.47 2.13
  A 26.42 25.78 -51.5 0 1 110.42 1.38
  C 111.42 1.37 112.72 0.69 114.21 0.80
  Q 117.48 1.03 120.46 0.00
  L 135.40 0.00
  Z
  M 237.40 128.03
  A 109.47 109.47 0.0 0 0 127.93 18.56
  A 109.47 109.47 0.0 0 0 18.46 128.03
  A 109.47 109.47 0.0 0 0 127.93 237.50
  A 109.47 109.47 0.0 0 0 237.40 128.03
  Z"
/>
<path fill="#000000" d="
  M 105.24 50.27
  Q 109.33 54.32 111.64 56.94
  A 1.55 1.52 -66.2 0 1 112.03 57.97
  L 112.03 64.39
  A 0.62 0.61 90.0 0 1 111.42 65.01
  L 92.50 65.01
  A 0.52 0.51 90.0 0 1 91.99 64.49
  L 91.99 57.90
  A 0.46 0.46 0.0 0 1 92.45 57.44
  L 99.52 57.44
  A 0.41 0.40 -15.2 0 0 99.87 56.83
  Q 99.69 56.52 98.77 55.62
  Q 94.68 51.56 92.37 48.94
  A 1.55 1.52 -66.2 0 1 91.98 47.91
  L 91.98 41.49
  A 0.62 0.61 -90.0 0 1 92.59 40.87
  L 111.51 40.87
  A 0.52 0.51 -90.0 0 1 112.02 41.39
  L 112.02 47.98
  A 0.46 0.46 0.0 0 1 111.56 48.44
  L 104.49 48.44
  A 0.41 0.40 -15.2 0 0 104.14 49.05
  Q 104.32 49.36 105.24 50.27
  Z"
/>
<path fill="#000000" d="
  M 141.33 67.06
  L 131.53 67.06
  A 1.38 1.36 -19.2 0 1 130.46 66.55
  L 129.78 65.69
  A 1.71 1.70 -19.0 0 0 128.44 65.04
  L 118.10 65.04
  A 0.44 0.44 0.0 0 1 117.66 64.60
  L 117.66 41.34
  A 0.44 0.44 0.0 0 1 118.10 40.90
  L 137.15 40.90
  A 0.62 0.61 -0.0 0 1 137.77 41.51
  L 137.77 61.21
  A 2.11 1.99 37.6 0 0 137.87 61.84
  Q 138.82 64.52 141.56 66.27
  A 0.43 0.43 0.0 0 1 141.33 67.06
  Z
  M 129.34 48.88
  A 0.50 0.50 0.0 0 0 128.84 48.38
  L 127.16 48.38
  A 0.50 0.50 0.0 0 0 126.66 48.88
  L 126.66 56.90
  A 0.50 0.50 0.0 0 0 127.16 57.40
  L 128.84 57.40
  A 0.50 0.50 0.0 0 0 129.34 56.90
  L 129.34 48.88
  Z"
/>
<path fill="#000000" d="
  M 152.14 41.30
  L 152.14 56.99
  A 0.40 0.40 0.0 0 0 152.54 57.39
  L 163.58 57.39
  A 0.40 0.40 0.0 0 1 163.98 57.79
  L 163.98 64.63
  A 0.40 0.40 0.0 0 1 163.58 65.03
  L 144.35 65.03
  A 0.40 0.40 0.0 0 1 143.95 64.63
  L 143.95 41.30
  A 0.40 0.40 0.0 0 1 144.35 40.90
  L 151.74 40.90
  A 0.40 0.40 0.0 0 1 152.14 41.30
  Z"
/>
<path fill="#9b488d" d="
  M 127.95 76.88
  Q 190.82 76.89 192.56 76.90
  A 0.23 0.22 3.4 0 1 192.79 77.15
  L 191.63 88.51
  A 2.26 1.99 90.0 0 0 191.63 88.83
  Q 191.85 92.26 191.10 95.00
  A 0.37 0.05 -82.0 0 1 191.08 95.07
  L 181.20 208.39
  A 1.09 1.09 0.0 0 1 180.43 209.33
  L 170.18 212.32
  A 0.93 0.83 -48.6 0 1 169.86 212.36
  Q 168.84 212.31 168.31 212.60
  A 2.62 0.51 -34.1 0 1 167.40 212.99
  L 128.07 224.12
  A 0.86 0.45 12.5 0 1 127.97 224.14
  Q 127.94 224.14 127.92 224.14
  Q 127.89 224.14 127.87 224.14
  A 0.86 0.45 -12.5 0 1 127.76 224.12
  L 88.44 212.97
  A 2.62 0.51 34.1 0 1 87.53 212.58
  Q 87.00 212.29 85.98 212.34
  A 0.93 0.83 48.6 0 1 85.66 212.30
  L 75.41 209.31
  A 1.09 1.09 0.0 0 1 74.64 208.37
  L 64.81 95.04
  A 0.37 0.05 82.1 0 1 64.79 94.97
  Q 64.04 92.23 64.26 88.80
  A 2.26 1.99 -90.0 0 0 64.26 88.48
  L 63.10 77.12
  A 0.23 0.22 -3.4 0 1 63.33 76.87
  Q 65.08 76.87 127.95 76.88
  Z
  M 127.90 114.86
  L 115.79 115.01
  A 0.51 0.51 0.0 0 0 115.28 115.52
  L 115.28 169.74
  A 0.38 0.38 0.0 0 0 115.66 170.12
  L 128.01 170.06
  L 128.01 212.03
  A 0.59 0.59 0.0 0 0 128.77 212.60
  L 170.30 201.08
  A 1.21 1.20 -5.7 0 0 171.17 200.03
  L 180.94 88.06
  A 0.63 0.63 0.0 0 0 180.31 87.38
  L 128.72 87.38
  A 0.81 0.81 0.0 0 0 127.91 88.18
  L 127.90 114.86
  Z
  M 78.71 156.80
  L 79.34 165.28
  A 0.77 0.75 7.3 0 0 79.88 165.96
  L 93.49 170.14
  A 0.54 0.54 0.0 0 0 93.81 170.14
  L 109.83 165.82
  A 1.30 1.27 82.8 0 0 110.78 164.57
  L 110.78 156.92
  A 1.36 1.36 0.0 0 0 110.49 156.08
  L 87.87 127.46
  A 0.49 0.49 0.0 0 1 88.10 126.69
  L 94.20 124.66
  A 1.01 1.01 0.0 0 1 94.82 124.66
  L 110.51 129.47
  A 0.20 0.20 0.0 0 0 110.77 129.28
  L 110.77 120.01
  A 0.36 0.36 0.0 0 0 110.52 119.67
  L 94.84 114.86
  A 0.69 0.67 45.8 0 0 94.46 114.85
  L 76.78 119.49
  A 0.69 0.69 0.0 0 0 76.34 120.47
  C 77.28 122.36 76.86 125.65 76.92 127.76
  A 2.13 2.13 0.0 0 0 77.17 128.72
  Q 78.32 130.85 80.51 133.73
  Q 97.24 155.71 97.38 155.88
  Q 98.84 157.62 98.98 158.66
  A 0.33 0.33 0.0 0 1 98.51 159.01
  Q 98.11 158.82 96.75 159.54
  Q 93.26 161.40 89.67 159.28
  Q 89.65 159.27 89.63 159.26
  L 79.37 156.26
  A 0.52 0.52 0.0 0 0 78.71 156.80
  Z"
/>
<path fill="#b472a5" fill-opacity="0.906" d="
  M 128.01 170.06
  Q 130.07 170.20 131.82 172.53
  A 1.19 1.16 -18.2 0 0 132.76 172.99
  L 144.73 172.99
  A 0.55 0.54 -19.0 0 0 145.16 172.11
  L 140.67 166.43
  A 0.95 0.93 26.0 0 1 140.46 165.84
  L 140.46 115.35
  A 0.53 0.52 -90.0 0 0 139.94 114.82
  L 127.90 114.86
  L 127.91 88.18
  A 0.81 0.81 0.0 0 1 128.72 87.38
  L 180.31 87.38
  A 0.63 0.63 0.0 0 1 180.94 88.06
  L 171.17 200.03
  A 1.21 1.20 -5.7 0 1 170.30 201.08
  L 128.77 212.60
  A 0.59 0.59 0.0 0 1 128.01 212.03
  L 128.01 170.06
  Z
  M 146.00 169.53
  A 0.59 0.59 0.0 0 0 146.59 170.12
  L 169.82 170.12
  A 0.59 0.59 0.0 0 0 170.41 169.58
  L 171.19 160.55
  A 0.59 0.59 0.0 0 0 170.61 159.91
  L 157.43 159.91
  A 0.59 0.59 0.0 0 1 156.84 159.32
  L 156.84 115.33
  A 0.59 0.59 0.0 0 0 156.25 114.74
  L 146.59 114.74
  A 0.59 0.59 0.0 0 0 146.00 115.33
  L 146.00 169.53
  Z"
/>
<rect fill="#9b488d" x="125.95" y="124.53" width="3.38" height="35.90" rx="0.47"/>
</svg>
